<svg width="48" height="48" viewBox="0 0 48 48" fill="none" xmlns="http://www.w3.org/2000/svg">
<mask id="mask0" mask-type="alpha" maskUnits="userSpaceOnUse" x="0" y="0" width="48" height="48">
<circle cx="24" cy="24" r="24" fill="#C4C4C4"/>
</mask>
<g mask="url(#mask0)">
<rect x="-10" y="-9" width="67" height="67" fill="#F6F9FB"/>
<g opacity="0.5">
<mask id="mask1" mask-type="alpha" maskUnits="userSpaceOnUse" x="13" y="12" width="22" height="22">
<path d="M23.9999 12.333C25.4144 12.333 26.771 12.8949 27.7712 13.8951C28.7713 14.8953 29.3333 16.2519 29.3333 17.6663C29.3333 19.0808 28.7713 20.4374 27.7712 21.4376C26.771 22.4378 25.4144 22.9997 23.9999 22.9997C22.5854 22.9997 21.2289 22.4378 20.2287 21.4376C19.2285 20.4374 18.6666 19.0808 18.6666 17.6663C18.6666 16.2519 19.2285 14.8953 20.2287 13.8951C21.2289 12.8949 22.5854 12.333 23.9999 12.333ZM23.9999 25.6663C29.8933 25.6663 34.6666 28.053 34.6666 30.9997V33.6663H13.3333V30.9997C13.3333 28.053 18.1066 25.6663 23.9999 25.6663Z" fill="#78A0BE"/>
</mask>
<g mask="url(#mask1)">
<rect x="8" y="7" width="32" height="32" fill="#78A0BE"/>
</g>
</g>
</g>
</svg>
