<svg width="15" height="13" viewBox="0 0 15 13" fill="none" xmlns="http://www.w3.org/2000/svg">
<path opacity="0.5" d="M6.81356 12.626L10.5069 8.9327C10.7536 8.68604 10.8936 8.34604 10.8936 7.9927L10.8936 1.3327C10.8936 0.599369 10.2936 -0.000631735 9.56022 -0.000631799L3.56022 -0.000632323C3.02689 -0.00063237 2.54689 0.319367 2.33356 0.806034L0.160223 5.87937C-0.399778 7.19937 0.566889 8.66603 2.00022 8.66604L5.76689 8.66604L5.13356 11.7194C5.06689 12.0527 5.16689 12.3927 5.40689 12.6327C5.80022 13.0194 6.42689 13.0194 6.81356 12.626ZM13.5602 -0.000631449C12.8269 -0.000631513 12.2269 0.599369 12.2269 1.3327L12.2269 6.66604C12.2269 7.39937 12.8269 7.99937 13.5602 7.99937C14.2936 7.99937 14.8936 7.39937 14.8936 6.66604L14.8936 1.3327C14.8936 0.599369 14.2936 -0.000631385 13.5602 -0.000631449Z" fill="#D81615"/>
</svg>
