<svg width="25" height="24" viewBox="0 0 25 24" fill="none" xmlns="http://www.w3.org/2000/svg">
<g opacity="0.5">
<mask id="mask0" mask-type="alpha" maskUnits="userSpaceOnUse" x="4" y="7" width="17" height="11">
<path d="M12.1055 7C8.46911 7 5.36365 9.26182 4.10547 12.4545C5.36365 15.6473 8.46911 17.9091 12.1055 17.9091C15.7418 17.9091 18.8473 15.6473 20.1055 12.4545C18.8473 9.26182 15.7418 7 12.1055 7ZM12.1055 16.0909C10.0982 16.0909 8.46911 14.4618 8.46911 12.4545C8.46911 10.4473 10.0982 8.81818 12.1055 8.81818C14.1127 8.81818 15.7418 10.4473 15.7418 12.4545C15.7418 14.4618 14.1127 16.0909 12.1055 16.0909ZM12.1055 10.2727C10.8982 10.2727 9.92365 11.2473 9.92365 12.4545C9.92365 13.6618 10.8982 14.6364 12.1055 14.6364C13.3127 14.6364 14.2873 13.6618 14.2873 12.4545C14.2873 11.2473 13.3127 10.2727 12.1055 10.2727Z" fill="black"/>
</mask>
<g mask="url(#mask0)">
<rect x="0.105469" y="1" width="24" height="24" fill="#7A858D"/>
</g>
</g>
</svg>
