<svg width="24" height="33" viewBox="0 0 24 33" fill="none" xmlns="http://www.w3.org/2000/svg">
<path d="M15.9226 29.4345C15.9867 29.0118 15.8229 28.5291 15.3797 28.2203C15.0803 28.0405 14.7562 27.9117 14.4153 27.8369L7.7221 25.9871C7.29523 25.8698 6.83067 25.7491 6.43791 25.8533C5.96162 25.9794 5.75584 26.3831 5.59477 26.7546C5.40427 27.1854 5.22648 27.6913 5.56576 28.1263C5.80899 28.4417 6.27407 28.6268 6.69866 28.7811C8.93791 29.5991 11.2269 30.3045 13.545 30.8907C13.9132 31.0051 14.3003 31.0589 14.6966 31.0506C15.4885 30.9862 15.8459 29.9795 15.9274 29.4361" fill="#78A0BE"/>
<path fill-rule="evenodd" clip-rule="evenodd" d="M19.1441 0.33185C19.8822 -0.179599 20.7648 0.123328 21.0068 0.966585C22.1631 4.99697 22.3402 9.12649 21.266 12.5806C20.1772 16.0816 17.7711 18.9332 13.8523 20.0636C11.0518 20.8714 8.96923 21.5252 7.37291 22.7531C5.87093 23.9085 4.65371 25.7023 4.01897 29.1202C3.85904 29.9813 3.29294 30.3154 2.39736 30.1616C1.50178 30.0079 0.75 29.1202 0.75 27.7858C1.48796 23.8122 3.04192 22.0279 5.31486 20.2795C7.49346 18.6036 10.2154 17.8055 12.9056 17.0294C15.5609 16.2635 17.2729 14.3634 18.1096 11.673C18.9609 8.93569 18.9724 7.98731 18.4233 3.49964C18.1813 2.65639 17.7715 1.2831 19.1441 0.33185Z" fill="#82C832"/>
<path fill-rule="evenodd" clip-rule="evenodd" d="M6.49459 1.65175C5.77779 1.16367 4.80932 1.3615 4.33145 2.09363C0.931911 7.30197 3.98903 15.4649 13.4362 18.8211C15.9823 19.7257 18.6205 21.5954 19.6681 23.8223C20.7285 26.0762 20.1881 28.046 19.6681 30.0621C19.3814 30.8918 19.3757 32.1591 20.1881 32.4519C21.0005 32.7448 22.1523 32.2187 22.439 31.389C23.3833 28.656 23.7834 24.9537 22.439 22.096C20.8983 18.8211 18.9419 17.2084 15.5085 15.9887C8.98653 13.0029 5.6251 11.8229 6.49459 5.61146C6.79022 3.49962 7.2114 2.13984 6.49459 1.65175Z" fill="#FFA046"/>
<path fill-rule="evenodd" clip-rule="evenodd" d="M10.7422 17.6762C11.4583 17.4479 12.1832 17.2379 12.9059 17.0294C13.7847 16.7759 14.5602 16.3982 15.2349 15.9086C15.3118 15.9368 15.3893 15.9647 15.4672 15.9924C16.6113 16.3989 17.5914 16.849 18.4468 17.3896C17.5295 18.3094 16.4243 19.069 15.1217 19.6167C14.5545 19.2984 13.9724 19.03 13.395 18.8249C12.4462 18.4879 11.562 18.1023 10.7422 17.6762Z" fill="#507800"/>
<path d="M18.9182 25.4802C19.0733 24.9714 18.973 24.3606 18.513 23.9274C18.1938 23.6672 17.8354 23.4673 17.4466 23.3325L9.975 20.2324C9.49775 20.0353 8.97701 19.8295 8.49769 19.9076C7.91649 20.0019 7.59922 20.4697 7.34037 20.9038C7.03585 21.4067 6.732 22.0029 7.0466 22.5773C7.27146 22.9936 7.78059 23.2783 8.24819 23.5203C10.7135 24.8015 13.2583 25.9514 15.8597 26.9591C16.2689 27.1451 16.7117 27.2594 17.1769 27.2992C18.1176 27.3207 18.7246 26.1338 18.9229 25.4795" fill="#78A0BE"/>
<path fill-rule="evenodd" clip-rule="evenodd" d="M11.3786 20.8149C9.76959 21.348 8.45858 21.9176 7.3726 22.753C7.33095 22.7851 7.28952 22.8176 7.24831 22.8506C7.16808 22.766 7.09937 22.6753 7.04642 22.5773C6.73181 22.0028 7.03566 21.4066 7.34018 20.9038C7.59903 20.4697 7.91631 20.0019 8.4975 19.9075C8.97682 19.8295 9.49756 20.0353 9.97481 20.2324L11.3786 20.8149Z" fill="#507800"/>
<path d="M16.9076 4.7128C16.7355 4.25309 16.3736 3.84824 15.9061 3.76072C15.6051 3.73081 15.313 3.76485 15.0369 3.86198L9.42107 5.38475C9.06321 5.48246 8.6774 5.59597 8.45699 5.90031C8.18959 6.2691 8.25325 6.78142 8.33159 7.23858C8.41981 7.77053 8.55538 8.37185 9.01514 8.63954C9.34657 8.83507 9.76528 8.78407 10.141 8.72723C12.122 8.41903 14.08 7.97186 15.997 7.38946C16.3124 7.31826 16.6099 7.1764 16.882 6.96744C17.4011 6.50098 17.1338 5.30249 16.9117 4.71193" fill="#78A0BE"/>
<path d="M16.9841 9.8413C16.8508 9.43416 16.6046 9.06389 16.3129 8.96215C16.1266 8.91951 15.9497 8.93265 15.7863 9.00126L12.4365 10.005C11.8164 10.1926 11.3338 10.7665 11.4542 11.4036C11.4552 11.4087 11.4561 11.4139 11.4571 11.419C11.5432 11.884 11.7083 12.4818 12.0062 12.7389C12.2211 12.9265 12.8524 12.9638 13.0793 12.9356C14.2747 12.7795 15.4476 12.502 16.5874 12.1052C16.7763 12.0612 16.9501 11.9551 17.1043 11.7896C17.3943 11.4152 17.1582 10.3638 16.9865 9.84078" fill="#78A0BE"/>
</svg>
