<svg xmlns="http://www.w3.org/2000/svg" width="20" height="20" viewBox="0 0 20 20"><g><g opacity=".6"><path fill="#7a858d" d="M14.405-.05a5.52 5.52 0 0 1 5.513 5.513v8.952a5.52 5.52 0 0 1-5.513 5.513H5.452A5.52 5.52 0 0 1-.06 14.415V5.463A5.52 5.52 0 0 1 5.453-.05zm3.74 14.465V5.463a3.745 3.745 0 0 0-3.74-3.74H5.452a3.745 3.745 0 0 0-3.74 3.74v8.952a3.745 3.745 0 0 0 3.74 3.74h8.952a3.745 3.745 0 0 0 3.74-3.74z"/></g><g opacity=".6"><path fill="#7a858d" d="M15.075 9.938a5.153 5.153 0 0 1-5.147 5.147A5.153 5.153 0 0 1 4.78 9.938 5.154 5.154 0 0 1 9.928 4.79a5.154 5.154 0 0 1 5.147 5.148zm-1.772 0a3.379 3.379 0 0 0-3.375-3.376 3.379 3.379 0 0 0-3.375 3.376 3.379 3.379 0 0 0 3.375 3.375 3.379 3.379 0 0 0 3.375-3.375z"/></g><g opacity=".6"><path fill="#7a858d" d="M15.29 3.28a1.305 1.305 0 0 0-1.3 1.3c0 .341.14.677.382.92.24.24.576.38.918.38.343 0 .677-.14.92-.38a1.31 1.31 0 0 0 .38-.92c0-.343-.139-.678-.38-.92a1.305 1.305 0 0 0-.92-.38z"/></g></g></svg>