<svg width="21" height="20" viewBox="0 0 21 20" fill="none" xmlns="http://www.w3.org/2000/svg">
<g clip-path="url(#clip0)">
<path d="M14.7324 0H7.23242C3.78117 0 0.982422 2.79875 0.982422 6.25V13.75C0.982422 17.2013 3.78117 20 7.23242 20H14.7324C18.1837 20 20.9824 17.2013 20.9824 13.75V6.25C20.9824 2.79875 18.1837 0 14.7324 0ZM19.1074 13.75C19.1074 16.1625 17.1449 18.125 14.7324 18.125H7.23242C4.81992 18.125 2.85742 16.1625 2.85742 13.75V6.25C2.85742 3.8375 4.81992 1.875 7.23242 1.875H14.7324C17.1449 1.875 19.1074 3.8375 19.1074 6.25V13.75Z" fill="url(#paint0_linear)"/>
<path d="M10.9824 5C8.22117 5 5.98242 7.23875 5.98242 10C5.98242 12.7613 8.22117 15 10.9824 15C13.7437 15 15.9824 12.7613 15.9824 10C15.9824 7.23875 13.7437 5 10.9824 5ZM10.9824 13.125C9.25992 13.125 7.85742 11.7225 7.85742 10C7.85742 8.27625 9.25992 6.875 10.9824 6.875C12.7049 6.875 14.1074 8.27625 14.1074 10C14.1074 11.7225 12.7049 13.125 10.9824 13.125Z" fill="url(#paint1_linear)"/>
<path d="M16.3577 5.29149C16.7256 5.29149 17.0239 4.9932 17.0239 4.62524C17.0239 4.25727 16.7256 3.95898 16.3577 3.95898C15.9897 3.95898 15.6914 4.25727 15.6914 4.62524C15.6914 4.9932 15.9897 5.29149 16.3577 5.29149Z" fill="url(#paint2_linear)"/>
</g>
<defs>
<linearGradient id="paint0_linear" x1="2.81323" y1="18.1693" x2="19.1516" y2="1.83069" gradientUnits="userSpaceOnUse">
<stop stop-color="#FFC107"/>
<stop offset="0.507" stop-color="#F44336"/>
<stop offset="0.99" stop-color="#9C27B0"/>
</linearGradient>
<linearGradient id="paint1_linear" x1="7.44698" y1="13.5354" x2="14.5179" y2="6.46456" gradientUnits="userSpaceOnUse">
<stop stop-color="#FFC107"/>
<stop offset="0.507" stop-color="#F44336"/>
<stop offset="0.99" stop-color="#9C27B0"/>
</linearGradient>
<linearGradient id="paint2_linear" x1="15.8866" y1="5.09642" x2="16.8287" y2="4.15417" gradientUnits="userSpaceOnUse">
<stop stop-color="#FFC107"/>
<stop offset="0.507" stop-color="#F44336"/>
<stop offset="0.99" stop-color="#9C27B0"/>
</linearGradient>
<clipPath id="clip0">
<rect width="20" height="20" fill="white" transform="translate(0.982422)"/>
</clipPath>
</defs>
</svg>
