<svg width="16" height="13" viewBox="0 0 16 13" fill="none" xmlns="http://www.w3.org/2000/svg">
<path d="M8.30803 0.372987L4.61469 4.06632C4.36803 4.31299 4.22803 4.65299 4.22803 5.00632V11.6663C4.22803 12.3997 4.82803 12.9997 5.56136 12.9997H11.5614C12.0947 12.9997 12.5747 12.6797 12.788 12.193L14.9614 7.11965C15.5214 5.79965 14.5547 4.33299 13.1214 4.33299H9.35469L9.98803 1.27965C10.0547 0.946321 9.95469 0.60632 9.71469 0.36632C9.32136 -0.0203462 8.69469 -0.0203462 8.30803 0.372987ZM1.56136 12.9997C2.29469 12.9997 2.89469 12.3997 2.89469 11.6663V6.33299C2.89469 5.59965 2.29469 4.99965 1.56136 4.99965C0.828027 4.99965 0.228027 5.59965 0.228027 6.33299V11.6663C0.228027 12.3997 0.828027 12.9997 1.56136 12.9997Z" fill="#82C831"/>
</svg>
