<svg width="18" height="18" viewBox="0 0 18 18" fill="none" xmlns="http://www.w3.org/2000/svg">
<path d="M8.97012 16.4755H2.24251C1.82988 16.4755 1.49502 16.1406 1.49502 15.728V2.27282C1.49502 1.86019 1.82992 1.52533 2.24251 1.52533H8.97012C9.38348 1.52533 9.71761 1.1912 9.71761 0.777836C9.71761 0.364469 9.38348 0.0302734 8.97012 0.0302734H2.24251C1.00614 0.0302734 0 1.03645 0 2.27282V15.728C0 16.9643 1.00614 17.9705 2.24251 17.9705H8.97012C9.38348 17.9705 9.71761 17.6363 9.71761 17.223C9.71761 16.8096 9.38348 16.4755 8.97012 16.4755Z" fill="#7A858D"/>
<path d="M17.7772 8.46784L13.2324 3.98278C12.9393 3.69274 12.4654 3.6965 12.1754 3.99027C11.8854 4.28403 11.8884 4.7572 12.1829 5.04724L15.4308 8.25254H6.72756C6.31419 8.25254 5.98006 8.58667 5.98006 9.00003C5.98006 9.4134 6.31419 9.74756 6.72756 9.74756H15.4308L12.1829 12.9529C11.8884 13.2429 11.8861 13.7161 12.1754 14.0098C12.3219 14.1578 12.5148 14.2326 12.7076 14.2326C12.8975 14.2326 13.0874 14.1608 13.2324 14.0173L17.7772 9.53223C17.9193 9.39171 18 9.20032 18 9C18 8.79975 17.92 8.60913 17.7772 8.46784Z" fill="#7A858D"/>
</svg>
