<svg width="210" height="43" viewBox="0 0 210 43" fill="none" xmlns="http://www.w3.org/2000/svg">
<path fill-rule="evenodd" clip-rule="evenodd" d="M17.8462 18.4901C18.8607 22.9086 19.3612 27.4279 19.3378 31.9595C19.3037 43.9491 31.4757 45.4779 38.5238 39.8823C42.2072 36.961 48.1511 35.5535 54.2074 34.1193C61.6802 32.3497 69.3241 30.5396 73.104 25.7953C79.9471 17.206 70.5117 7.88624 62.75 4.44452C62.6611 4.40507 62.5722 4.36563 62.4833 4.32619C54.8168 0.924898 47.3508 -2.38742 28.5911 2.38098C17.1934 5.26917 16.5406 12.8756 17.8462 18.4901ZM16.0427 33.4939C16.4932 32.2539 16.6445 30.9144 16.3451 29.5965C16.0478 28.2762 15.2998 26.9775 14.284 25.6779C13.266 24.3807 11.9825 23.0805 10.4793 22.5305C8.9788 21.9833 7.26092 22.1841 5.57283 22.7139C3.882 23.2409 2.21868 24.0992 1.40863 25.5403C0.596291 26.9836 0.637232 29.0097 1.70046 30.4189C2.32962 31.2534 3.31779 31.8715 4.32523 32.5018C5.01589 32.9338 5.71561 33.3715 6.3149 33.8885C6.96335 34.4477 7.49379 35.1001 7.98667 35.7062C8.61168 36.4749 9.17629 37.1692 9.84449 37.5052C11.0419 38.1037 12.568 37.5531 13.7073 36.7089C14.8443 35.867 15.5944 34.7315 16.0427 33.4939Z" fill="#FFF3F0"/>
<path d="M70.0061 9.37842C69.8823 9.32296 69.7481 9.29429 69.6124 9.29429C69.4767 9.29429 69.3425 9.32296 69.2187 9.37842C69.0525 9.46301 68.8998 9.57174 68.7655 9.70105C67.8481 10.6986 66.808 11.8483 65.6826 13.1203C64.5571 14.3923 63.3908 15.7162 62.1836 17.1032C60.9764 18.4901 59.7767 19.8808 58.5806 21.2752C57.6595 22.3507 56.7816 23.3853 55.9471 24.3792C55.416 24.3792 54.8885 24.3384 54.3685 24.3087L50.3421 24.1604C50.7779 23.525 51.2348 22.8513 51.7127 22.1393C52.6227 20.7931 53.6293 19.3728 54.7065 17.9116C55.7837 16.4505 56.9649 14.9448 58.198 13.4614C59.4312 11.9781 60.7721 10.4947 62.1762 9.09286C62.2897 9.00234 62.3839 8.89011 62.4535 8.76275C62.523 8.6354 62.5664 8.49547 62.581 8.35117C62.5815 8.2633 62.5612 8.17655 62.5218 8.09795C62.4825 8.01936 62.4251 7.95111 62.3545 7.89874C62.1867 7.79826 61.9954 7.74364 61.7998 7.74039C61.6042 7.73713 61.4112 7.78535 61.2401 7.88019L61.125 7.9247C61.0626 7.94356 61.0018 7.96711 60.943 7.99516L60.8798 8.03595C59.5237 9.30289 58.2612 10.6662 57.1023 12.1153C55.9137 13.5987 54.7659 15.1562 53.6925 16.7286C52.619 18.301 51.6013 19.8549 50.669 21.3531C50.0672 22.3198 49.4965 23.2308 48.9566 24.0862C47.2777 24.0306 45.2422 23.9787 42.813 23.923C44.1279 22.3692 45.4614 20.8302 46.78 19.3468C48.2249 17.7188 49.5806 16.2205 50.8213 14.8966C51.5319 14.103 52.2315 13.3341 52.9199 12.59C53.6108 11.8483 54.3016 11.1066 55.0037 10.3834C55.1686 10.2144 55.272 9.99502 55.2971 9.76039C55.3 9.64533 55.2653 9.53245 55.1983 9.43879C55.1313 9.34513 55.0356 9.27578 54.9257 9.2412C54.8013 9.18544 54.6664 9.1566 54.5301 9.1566C54.3937 9.1566 54.2589 9.18544 54.1345 9.2412C53.9683 9.32584 53.8156 9.43456 53.6813 9.56384C52.7527 10.5725 51.7697 11.6529 50.7321 12.805C49.6946 13.9571 48.6322 15.155 47.5452 16.3986C46.4581 17.6347 45.366 18.8944 44.2691 20.1775C43.1721 21.4606 42.1246 22.6968 41.1267 23.886L37.4123 23.797C37.1865 23.772 36.9579 23.7922 36.74 23.8563C36.562 23.8999 36.3899 23.9646 36.2274 24.0491C36.0358 24.1442 35.8863 24.3067 35.8077 24.5053C35.7348 24.6387 35.6942 24.7873 35.6888 24.9392C35.6888 25.0615 35.7297 25.4546 36.3165 25.4621H37.4903C37.8617 25.4621 38.2889 25.4621 38.7755 25.488L39.8081 25.5103C38.2666 27.3942 36.9183 29.1594 35.7965 30.7615L35.7519 30.8245V30.8876C35.747 31.0401 35.7646 31.1925 35.8039 31.34C35.8344 31.4426 35.8995 31.5316 35.9882 31.5918C36.0769 31.6519 36.1837 31.6796 36.2905 31.67C36.4386 31.6612 36.5812 31.6109 36.7021 31.525C36.8229 31.4391 36.9171 31.321 36.974 31.1842C37.5237 30.3758 38.1923 29.4858 38.9649 28.5401C39.7375 27.5944 40.5398 26.608 41.4201 25.5399L43.8753 25.6178C44.8658 25.6475 45.9158 25.6809 47.0251 25.7179L47.8795 25.7476C47.513 26.2816 47.1576 26.7885 46.8134 27.2681C46.4348 27.7952 46.0294 28.3027 45.5988 28.7886L45.5542 28.8627C45.481 28.9851 45.4465 29.1266 45.4551 29.2688C45.4637 29.4111 45.5151 29.5474 45.6025 29.6601C45.6732 29.7281 45.768 29.7655 45.8662 29.7639C46.0705 29.7639 46.3008 29.5896 46.6537 29.1854C47.0734 28.6959 47.4969 28.1581 47.9129 27.5833C48.3289 27.0085 48.7449 26.4374 49.1981 25.7995L50.3978 25.8329L53.6071 25.9219L54.6174 25.9627C53.191 27.7205 51.9319 29.3745 50.8695 30.8913L50.825 30.9543V31.0322C50.8204 31.1859 50.8379 31.3395 50.877 31.4883C50.9074 31.591 50.9725 31.6799 51.0612 31.7401C51.1499 31.8003 51.2568 31.8279 51.3636 31.8184C51.5116 31.8095 51.6542 31.7593 51.7751 31.6734C51.8959 31.5875 51.9902 31.4694 52.047 31.3326C52.5967 30.5241 53.2653 29.6341 54.0379 28.6884C54.7214 27.8503 55.4531 26.9553 56.2331 26.0035H56.6046H58.4803C58.9744 26.0035 59.2938 25.87 59.4312 25.5882C59.5244 25.4152 59.5789 25.2242 59.5909 25.0282C59.5957 24.9206 59.5686 24.8141 59.5131 24.7217C59.4577 24.6294 59.3762 24.5554 59.2789 24.509C59.1454 24.436 58.9965 24.3954 58.8444 24.3903L57.5926 24.3718L58.8741 22.8884C59.7036 21.9316 60.5369 20.9835 61.3739 20.044L63.8031 17.3294C64.5831 16.4567 65.2789 15.6816 65.8906 15.0042C66.5938 14.2204 67.2958 13.4577 67.9966 12.716C68.6875 11.9743 69.3747 11.2327 70.0804 10.5132C70.247 10.3449 70.3517 10.1254 70.3776 9.89019C70.3788 9.77638 70.3434 9.66518 70.2765 9.57302C70.2097 9.48086 70.1148 9.41263 70.0061 9.37842Z" fill="#FEAA59"/>
<path d="M43.2728 8.25144C43.1214 8.10581 42.9541 7.97775 42.7741 7.86968C42.639 7.77425 42.4748 7.72926 42.31 7.74251C42.1453 7.75575 41.9903 7.8264 41.872 7.94221C41.8153 8.00082 41.7643 8.06474 41.7198 8.13309C40.5882 9.81439 39.14 11.2578 37.4566 12.3821C35.763 13.5098 33.9471 14.4409 32.0439 15.1575C30.1289 15.8689 28.1613 16.4292 26.1593 16.8334C24.4083 17.1922 22.7145 17.5091 21.1196 17.7725C21.787 16.9708 22.4278 16.2073 23.0419 15.482L25.0326 13.1341L26.4295 11.4888L26.9548 10.8627C27.0838 10.7716 27.1901 10.6519 27.2654 10.5128C27.3407 10.3737 27.3829 10.2191 27.3887 10.061C27.3931 9.97576 27.3784 9.89065 27.346 9.81179C27.3135 9.73292 27.264 9.66227 27.201 9.60493C27.138 9.54759 27.0631 9.50499 26.9817 9.48021C26.9003 9.45543 26.8144 9.44907 26.7302 9.46161C26.4747 9.4719 26.2331 9.58142 26.0565 9.76702C25.9364 9.86499 25.8278 9.97642 25.733 10.0992C25.7139 10.1182 25.6987 10.1335 25.1392 10.8054L23.6851 12.5768L21.5574 15.1193C20.7682 16.0533 19.9549 17.0357 19.1175 18.0665C18.0289 18.2345 17.0138 18.4012 16.0724 18.5666C15.2115 18.7204 14.3601 18.923 13.5221 19.1736C12.9018 19.3334 12.3108 19.5912 11.7712 19.9371C11.5585 20.0693 11.3817 20.252 11.2562 20.4691C11.1307 20.6861 11.0605 20.9309 11.0518 21.1816C11.0518 21.7963 11.3943 22.3269 12.0871 22.7965C12.7911 23.2343 13.5451 23.5855 14.3329 23.8425C13.6731 24.6315 13.0514 25.3721 12.4677 26.0643L9.55204 29.5231L9.09908 30.0575C9.00977 30.1376 8.9377 30.2351 8.8873 30.3441C8.8369 30.453 8.80923 30.5712 8.80599 30.6913C8.80124 30.7684 8.81321 30.8456 8.84107 30.9176C8.86893 30.9896 8.91202 31.0547 8.96737 31.1084C9.02272 31.1621 9.08902 31.2031 9.16169 31.2286C9.23437 31.2542 9.31171 31.2636 9.38837 31.2563C9.4754 31.2519 9.56068 31.2301 9.63915 31.192C9.71761 31.154 9.78765 31.1005 9.84513 31.0349L9.97455 30.9051C10.1783 30.715 10.3643 30.5067 10.5303 30.2828C10.8323 29.9137 11.2421 29.4264 11.7597 28.8206L13.5525 26.6942C14.1971 25.9307 14.8835 25.1214 15.6118 24.2663C16.5063 24.5411 17.515 24.8122 18.5808 25.0756C19.7227 25.3581 20.9141 25.6711 22.1283 26.0109C23.3426 26.3507 24.5949 26.7286 25.8662 27.1562C27.1375 27.5837 28.3556 28.0342 29.5279 28.5534C30.6811 29.0601 31.7945 29.6536 32.8585 30.3286C33.8632 30.9638 34.7884 31.7174 35.6143 32.5733L35.7171 32.6802L35.8617 32.6459C36.1415 32.5793 36.4021 32.4486 36.623 32.2641C36.7325 32.1869 36.8234 32.0861 36.8893 31.9693C36.9551 31.8524 36.9942 31.7223 37.0037 31.5884C37.0035 31.4261 36.9485 31.2686 36.8476 31.1417C36.764 31.0331 36.6738 30.9299 36.5774 30.8325C35.7594 29.9629 34.8347 29.2009 33.8253 28.5649C32.7618 27.8925 31.6512 27.2979 30.5024 26.7859C29.3099 26.2541 28.0916 25.7827 26.852 25.3734C25.6074 24.9611 24.3627 24.5793 23.156 24.2281C21.9494 23.8769 20.7771 23.5715 19.6542 23.2928C18.6975 23.0535 17.822 22.8245 17.0278 22.6056C17.5353 22.0304 18.0289 21.4501 18.5085 20.8648L20.1642 18.8873C21.433 18.6811 22.7678 18.4521 24.1685 18.2001C25.5883 17.9405 27.088 17.6465 28.584 17.2648C30.0799 16.883 31.5796 16.4745 33.0374 15.9859C34.4738 15.5096 35.8733 14.9277 37.2244 14.2451C38.4903 13.5981 39.6846 12.8188 40.7872 11.9201C41.8457 11.0653 42.7473 10.0317 43.4517 8.86607C43.5164 8.74009 43.5392 8.5263 43.2728 8.25144ZM18.1659 19.2118C17.7852 19.6521 17.4236 20.0898 17.0811 20.525C16.6218 21.0875 16.1587 21.6461 15.6917 22.2009C15.0166 21.9958 14.3575 21.7405 13.72 21.4374C13.2899 21.2198 13.0729 20.9946 13.0729 20.7617C13.0729 20.6395 13.1795 20.5174 13.3851 20.399C13.7535 20.1989 14.1445 20.0438 14.5498 19.9371C15.0789 19.792 15.7108 19.647 16.4264 19.5057C16.9669 19.4141 17.5454 19.311 18.1659 19.2118Z" fill="#FEAA59"/>
<path d="M89.7157 16.7875V7.88021H91.3083V12.1048L94.8821 7.88021H96.7984L93.0693 12.0285L97.0315 16.7875H95.0115L91.3083 12.1939V16.7875H89.7157Z" fill="#82C831"/>
<path d="M98.7279 16.7875L102.561 7.85476H103.959L107.792 16.7875H106.095L105.15 14.5098H101.279L100.333 16.7875H98.7279ZM103.221 9.87798L101.887 13.0464H104.542L103.221 9.87798Z" fill="#82C831"/>
<path d="M115.942 7.88021V16.7875H114.35V13.1355C113.78 13.5427 113.059 13.7463 112.187 13.7463C111.41 13.7463 110.754 13.5172 110.219 13.0592C109.693 12.6011 109.429 11.88 109.429 10.896V7.88021H111.022V10.4506C111.022 11.6722 111.553 12.2829 112.615 12.2829C113.202 12.2829 113.78 12.0921 114.35 11.7103V7.88021H115.942Z" fill="#82C831"/>
<path d="M120.008 16.7875V7.88021H125.252V9.34354H121.601V11.5576H124.864V13.021H121.601V15.3241H125.382V16.7875H120.008Z" fill="#82C831"/>
<path d="M135.302 14.7515L135.911 15.9222C135.626 16.2191 135.216 16.4609 134.681 16.6475C134.154 16.8341 133.598 16.9275 133.011 16.9275C131.621 16.9275 130.494 16.5075 129.631 15.6677C128.768 14.8279 128.336 13.7166 128.336 12.3338C128.336 11.002 128.746 9.90343 129.566 9.03815C130.386 8.17287 131.522 7.74023 132.972 7.74023C134.137 7.74023 135.056 8.04138 135.73 8.64369L135.018 9.80163C134.405 9.40293 133.723 9.20357 132.972 9.20357C132.117 9.20357 131.409 9.48776 130.848 10.0561C130.296 10.6245 130.02 11.3837 130.02 12.3338C130.02 13.2585 130.309 14.0135 130.887 14.5988C131.474 15.1757 132.229 15.4641 133.153 15.4641C133.956 15.4641 134.672 15.2266 135.302 14.7515Z" fill="#82C831"/>
<path d="M137.922 9.34354V7.88021H145.393V9.34354H142.453V16.7875H140.861V9.34354H137.922Z" fill="#82C831"/>
<path d="M148.328 16.7748V7.90566C149.174 7.86324 150.046 7.84203 150.943 7.84203C151.971 7.84203 152.722 8.04563 153.196 8.45282C153.68 8.85152 153.921 9.38172 153.921 10.0434C153.921 10.9935 153.49 11.6679 152.627 12.0666V12.0921C153.101 12.2108 153.485 12.4441 153.779 12.7919C154.072 13.1397 154.219 13.5978 154.219 14.1662C154.219 15.0484 153.908 15.7144 153.287 16.164C152.674 16.6136 151.863 16.8384 150.853 16.8384C149.756 16.8384 148.915 16.8172 148.328 16.7748ZM151.047 12.9574H149.92V15.3114C150.283 15.3538 150.633 15.375 150.969 15.375C152.074 15.375 152.627 14.9466 152.627 14.0898C152.627 13.7166 152.488 13.4366 152.212 13.25C151.936 13.0549 151.548 12.9574 151.047 12.9574ZM150.917 9.30537C150.538 9.30537 150.205 9.31809 149.92 9.34354V11.5958H150.995C151.392 11.5958 151.716 11.4983 151.966 11.3031C152.217 11.0995 152.342 10.8026 152.342 10.4124C152.342 10.0561 152.212 9.78467 151.953 9.59804C151.703 9.40293 151.358 9.30537 150.917 9.30537Z" fill="#82C831"/>
<path d="M157.2 12.3338C157.2 11.0274 157.64 9.93736 158.52 9.0636C159.41 8.18136 160.54 7.74023 161.913 7.74023C163.277 7.74023 164.403 8.16439 165.292 9.0127C166.19 9.86101 166.639 10.9681 166.639 12.3338C166.639 13.6657 166.19 14.7643 165.292 15.6295C164.395 16.4948 163.268 16.9275 161.913 16.9275C160.549 16.9275 159.423 16.5033 158.533 15.655C157.644 14.8067 157.2 13.6996 157.2 12.3338ZM158.883 12.3338C158.883 13.2246 159.172 13.9711 159.751 14.5734C160.338 15.1672 161.058 15.4641 161.913 15.4641C162.845 15.4641 163.583 15.1672 164.127 14.5734C164.68 13.9796 164.956 13.2331 164.956 12.3338C164.956 11.4177 164.662 10.6669 164.075 10.0816C163.497 9.49624 162.776 9.20357 161.913 9.20357C161.041 9.20357 160.316 9.49624 159.738 10.0816C159.168 10.6669 158.883 11.4177 158.883 12.3338Z" fill="#82C831"/>
<path d="M92.137 28.7558L88.7316 24.493H90.5573L93.8462 28.743V24.493H95.4259V28.743L98.7018 24.493H100.54L97.1351 28.743L100.683 33.4003H98.8442L95.4259 28.7812V33.4003H93.8462V28.7812L90.4149 33.4003H88.5892L92.137 28.7558Z" fill="#82C831"/>
<path d="M105.022 33.4003H103.623V24.493H105.216V30.8299L109.968 24.493H111.366V33.4003H109.774V27.0761L105.022 33.4003Z" fill="#82C831"/>
<path d="M117.737 33.5402C117.003 33.5402 116.369 33.396 115.834 33.1076C115.307 32.8107 114.906 32.4544 114.629 32.0387L115.497 30.9826C115.782 31.3049 116.123 31.5679 116.52 31.7715C116.917 31.9751 117.297 32.0769 117.659 32.0769C118.134 32.0769 118.531 31.9666 118.85 31.746C119.17 31.517 119.33 31.1862 119.33 30.7535C119.33 30.3972 119.191 30.113 118.915 29.901C118.639 29.6889 118.242 29.5829 117.724 29.5829H116.792V28.1195H117.672C118.026 28.1195 118.333 28.0135 118.592 27.8014C118.85 27.5893 118.98 27.3051 118.98 26.9488C118.98 26.5841 118.859 26.3041 118.617 26.109C118.376 25.9139 118.056 25.8163 117.659 25.8163C116.925 25.8163 116.313 26.1387 115.821 26.7834L114.901 25.74C115.203 25.3243 115.618 24.9892 116.144 24.7348C116.671 24.4803 117.236 24.353 117.841 24.353C118.661 24.353 119.317 24.5693 119.809 25.002C120.309 25.4261 120.56 26.0242 120.56 26.7961C120.56 27.1609 120.456 27.5215 120.249 27.8777C120.042 28.234 119.74 28.5267 119.343 28.7558V28.7939C119.869 28.9212 120.262 29.1714 120.521 29.5447C120.78 29.9179 120.909 30.3718 120.909 30.9062C120.909 31.6952 120.594 32.3314 119.964 32.8149C119.343 33.2985 118.6 33.5402 117.737 33.5402Z" fill="#82C831"/>
<path d="M130.296 33.4003V29.5956H126.153V33.4003H124.56V24.493H126.153V28.1322H130.296V24.493H131.876V33.4003H130.296Z" fill="#82C831"/>
<path d="M137.337 33.4003H135.939V24.493H137.532V30.8299L142.284 24.493H143.682V33.4003H142.089V27.0761L137.337 33.4003Z" fill="#82C831"/>
</svg>
