<svg width="16" height="16" viewBox="0 0 16 16" fill="none" xmlns="http://www.w3.org/2000/svg">
<path d="M7.97344 14.6443H1.99334C1.62656 14.6443 1.32891 14.3466 1.32891 13.9799V2.01974C1.32891 1.65296 1.62659 1.3553 1.99334 1.3553H7.97344C8.34087 1.3553 8.63787 1.0583 8.63787 0.690867C8.63787 0.32343 8.34087 0.0263672 7.97344 0.0263672H1.99334C0.894344 0.0263672 0 0.920742 0 2.01974V13.9799C0 15.0789 0.894344 15.9732 1.99334 15.9732H7.97344C8.34087 15.9732 8.63787 15.6762 8.63787 15.3088C8.63787 14.9413 8.34087 14.6443 7.97344 14.6443Z" fill="#82C831"/>
<path d="M15.802 7.52762L11.7621 3.5409C11.5016 3.28309 11.0804 3.28643 10.8226 3.54756C10.5648 3.80868 10.5674 4.22928 10.8292 4.48709L13.7163 7.33624H5.98005C5.61261 7.33624 5.31561 7.63324 5.31561 8.00068C5.31561 8.36812 5.61261 8.66515 5.98005 8.66515H13.7163L10.8292 11.5143C10.5675 11.7721 10.5655 12.1927 10.8226 12.4538C10.9528 12.5854 11.1242 12.6518 11.2957 12.6518C11.4645 12.6518 11.6332 12.5881 11.7621 12.4605L15.802 8.47374C15.9282 8.34884 16 8.17871 16 8.00065C16 7.82265 15.9289 7.65321 15.802 7.52762Z" fill="#82C831"/>
</svg>
