<svg xmlns="http://www.w3.org/2000/svg" width="241" height="48" viewBox="0 0 241 48"><g><g><g><path fill="#feaa59" d="M21.46 38.05c-.156.392-.391.497-.653.157-.68-.835-1.072-2.037-.47-4.57a141.645 141.645 0 0 1 9.568-21.858c.34-.523.654-.497 1.02 0 .601.94.915 2.925-.601 6.137-.968 2.037-2.222 4.57-3.556 7.443a121.212 121.212 0 0 0 14.51-14.494c.262-.34.602-.34.81 0a5.06 5.06 0 0 1-1.045 4.465A71.178 71.178 0 0 1 28.52 27.683a46.66 46.66 0 0 1 3.268 5.04 4.463 4.463 0 0 1 .261 4.623c-.235.313-.522.313-.758 0-1.834-3-3.86-5.88-6.065-8.618-1.281 2.82-2.563 6.032-3.765 9.323z"/></g><g><path fill="#feaa59" d="M51.215 19.795c.34-.574.68-.653.994-.313a4.54 4.54 0 0 1 .235 4.622c-.81 1.933-2.615 5.223-3.582 7.443-.967 2.22-.837 4.205.575 4.022 1.412-.183 3.843-3.16 5.23-6.111.182-.392.47-.444.653 0 .237.87.154 1.797-.236 2.612a7.521 7.521 0 0 1-5.751 4.805 3.244 3.244 0 0 1-3.608-3.212 7.315 7.315 0 0 1-5.046 3.551c-3.896.235-4.994-5.04-1.804-10.29 3.19-5.248 6.17-7.233 8.183-7.338a2.617 2.617 0 0 1 2.487 1.775c.117.345.16.71.127 1.072.68-1.045 1.125-1.933 1.543-2.638zm-3.242 1.907c-1.333 0-4.235 2.846-6.327 6.685-2.091 3.84-2.327 7.417-.706 7.365 1.621-.053 3.739-2.847 5.647-6.634 2.38-4.753 2.615-7.364 1.386-7.416z"/></g><g><path fill="#feaa59" d="M59.031 30.368a3.454 3.454 0 0 1-3.47-2.981 3.444 3.444 0 0 1 .176-1.641 34.222 34.222 0 0 1 3.451-6.973.418.418 0 0 1 .758 0 3.106 3.106 0 0 1 .47 3.917c-.94 1.776-1.516 2.978-1.62 3.265-.758 2.089 0 2.611.784 2.611a6.88 6.88 0 0 0 4.837-3.917c1.673-3.03 1.908-3.97 3.137-5.824.392-.6.68-.705 1.02-.313a4.62 4.62 0 0 1 .235 4.675c-.81 1.932-2.614 5.223-3.556 7.364-.94 2.142-.68 4.179.81 4.022 1.491-.157 3.714-3.056 5.23-6.085.183-.392.549-.444.758 0a3.626 3.626 0 0 1-.21 2.612 7.991 7.991 0 0 1-6.012 4.83c-4.942.288-3.713-3.942-1.909-8.513a7.479 7.479 0 0 1-4.889 2.951z"/></g><g><path fill="#feaa59" d="M76.686 33.955c3.477 0 6.327-3.552 7.843-6.398.183-.34.523-.366.706 0a3.391 3.391 0 0 1-.549 2.611 10.607 10.607 0 0 1-7.843 4.988c-5.23.392-7.425-4.727-5.02-10.263 2.405-5.537 6.536-7.835 8.706-6.868a7.842 7.842 0 0 1 2.615 2.037 5.4 5.4 0 0 1-1.02 5.745 5.225 5.225 0 0 1-3.481 2.576 5.236 5.236 0 0 1-4.232-.93c-1.202 3.89.053 6.502 2.275 6.502zm2.928-9.793c1.229-1.828 2.04-4.048 1.412-4.466-.628-.418-4.236 2.037-5.987 6.111 0 .261-.21.522-.288.731 2.118 1.175 3.687-.731 4.863-2.376z"/></g><g><path fill="#feaa59" d="M96.315 19.504c.994 1.698-.575 4.022-1.28 6.32-.131.523-.288.653-.863.392-1.02-.444-1.7-1.671-1.203-3.578.497-1.906 1.516-3.395.915-3.813-.601-.417-3.713 2.299-5.386 6.216-2.039 4.857-.941 8.252 1.517 8.148 3.503-.157 6.327-3.682 7.843-6.398.183-.34.575-.418.758 0a3.784 3.784 0 0 1-.601 2.611 10.451 10.451 0 0 1-7.844 5.014c-5.228.392-7.398-4.674-4.993-10.21 2.405-5.537 6.458-7.835 8.628-6.79a5.54 5.54 0 0 1 2.51 2.088z"/></g><g><path fill="#feaa59" d="M109.624 16.165c1.412 0 2.301 2.115 1.857 3.996a13.072 13.072 0 0 1 5.96-4.231c1.517 0 1.988 2.403 1.255 4.544-.731 2.142-2.614 4.805-3.45 6.947-.837 2.141-.34 4.335 1.176 4.204 1.516-.13 3.425-3.003 4.889-6.006.183-.392.523-.418.758 0a4.07 4.07 0 0 1-.235 2.611 7.835 7.835 0 0 1-6.013 4.832c-3.634.209-5.23-2.612-3.791-6.111 1.438-3.5 4.81-8.67 4.157-8.67-.654 0-1.726.443-4.288 3.316a36.342 36.342 0 0 0-6.615 11.804c-.209.522-.549.653-.94.261-.393-.391-1.413-2.193-.393-5.223 1.177-3.551 5.36-9.558 4.497-9.793-.863-.235-2.615 1.07-4.994 4.126a37.511 37.511 0 0 0-5.542 10.838c-.157.392-.393.575-.785.261-.967-.731-1.255-2.115-.653-4.283a69.039 69.039 0 0 1 5.856-12.822c.262-.47.601-.444.863 0a5.219 5.219 0 0 1 .209 4.465c1.726-2.402 4.706-5.04 6.222-5.066z"/></g><g><path fill="#feaa59" d="M124.392 18.772a4.762 4.762 0 0 1-2.614 0c-.445-.235-.288-.575 0-.679a22.728 22.728 0 0 0 4.902-2.491c-.344.95-.658 1.805-.943 2.578-.467.267-.922.473-1.345.592zm2.288-3.17c.155-.43.316-.878.483-1.348 2.327-5.615 4.55-12.535 7.844-14.05a1.858 1.858 0 0 1 2.483.731 5.222 5.222 0 0 1 1.125 5.223 13.943 13.943 0 0 1-8.456 8.395c1.02-1.032 1.705-1.845 1.684-1.866-.052-.052-1.83.183-1.83.183a22.715 22.715 0 0 1-3.333 2.732zm-.943 2.578c1.51-.862 3.16-2.356 4.363-3.568-.358.928-.668 1.93-1.028 2.907a6.224 6.224 0 0 1 4.105-2.325c3.843-.209 4.157 5.38 2.222 10.133-2.196 5.406-4.314 6.685-6.536 6.816-2.876.157-5.23-1.671-5.438-5.589-.063-2.057.617-3.777 2.312-8.374zm4.38-3.612l.042-.015-.059.059.018-.044zm-2.614 15.982c1.961-.235 3.974-3.082 5.464-6.842 1.49-3.76 1.464-7.365-.209-7.312-1.673.052-3.79 2.611-5.542 6.607-1.752 3.995-1.255 7.756.287 7.573zm9.23-28.1c-.576-.757-3.635 3.76-6.014 10.263"/></g><g><path fill="#feaa59" d="M150.86 21.784c-.68 3.604-3.06 7.834-6.092 9.192a4.607 4.607 0 0 1-5.36-1.54c-1.987-2.325-1.569-5.98 0-9.428a9.688 9.688 0 0 1 6.327-5.798 2.853 2.853 0 0 1 2.928 1.254c1.046 1.227 2.3 1.462 2.222 4.466v.966c0 .34.497 0 .837-.13.34-.131.314.182.157.417a1.7 1.7 0 0 1-1.02.6zm-3.609-.888a5.225 5.225 0 0 1-2.144-3.552 14.573 14.573 0 0 0-2.98 4.1c-1.569 3.265-1.987 7.156-.837 8.018 1.15.862 3.687-.705 5.517-4.675.52-1.103.948-2.248 1.28-3.421a3.138 3.138 0 0 1-.836-.47zm1.203-3.787c-.288-1.332-1.098-1.018-1.255.209a3.418 3.418 0 0 0 1.098 2.899c.248-1 .3-2.037.157-3.056z"/></g><g><path fill="#82c831" d="M162.1 26.532c-.131.306-.277.606-.437.898l-.193-.848zm-.837 1.567a39.19 39.19 0 0 1-1.82 2.006 141.404 141.404 0 0 0-1.082 3.06c-.6 2.533-.209 3.735.471 4.57.261.34.497.235.654-.157 1.307-3.29 2.614-6.502 3.974-9.349a82.139 82.139 0 0 1 5.987 8.749c.235.313.523.313.758 0a4.462 4.462 0 0 0-.262-4.623 46.99 46.99 0 0 0-3.32-5.092 71.157 71.157 0 0 0 12.523-12.353 5.064 5.064 0 0 0 1.046-4.465c-.21-.34-.523-.34-.81 0a121.296 121.296 0 0 1-14.59 14.441c1.334-2.872 2.59-5.432 3.557-7.442 1.516-3.213 1.202-5.197.6-6.138-.365-.496-.679-.522-1.019 0a141.444 141.444 0 0 0-6.706 14.188l.246 1.088-.705.056c-.121.304-.241.61-.36.915l1.151.067c-.093.162-.19.322-.293.479zm-8.052 7.207a9.024 9.024 0 0 1-4.445 2.011c-1.202 0-2.248-.47-2.274-.992-.026-.522.235-.34.627-.575a70.586 70.586 0 0 0 11.35-8.64l.075.336 1.861.107c-.329.848-.65 1.698-.962 2.552a39.206 39.206 0 0 1-6.232 5.201zm5.259-8.197l-.71-3.189c-.889-3.97-1.752-8.07-2.902-11.647 0-.418 0-.68.523-.627 1.046 0 2.484.81 3.425 3.526.392 1.2.863 3.29 1.385 5.771l1.033 4.55c-.155.381-.308.763-.46 1.145l-1.958.155-.336.316zm3.086.51l.107-.19.045.2z"/></g><g><path fill="#82c831" d="M177.445 36.722c-2.98 0-3.242-3.134-2.484-5.928a44.871 44.871 0 0 1 5.23-10.969.627.627 0 0 1 1.071 0c.994 1.332.889 3.213-.47 5.667a42.885 42.885 0 0 0-3.007 6.242c-.758 2.09-.55 3.604.418 3.63 1.647 0 3.765-3.03 5.804-6.79 2.38-4.413 3.425-7.364 4.68-9.219.392-.6.68-.705 1.02-.313a4.618 4.618 0 0 1 .235 4.675c-.81 1.932-2.615 5.223-3.556 7.364-.94 2.142-.68 4.179.81 4.022 1.491-.157 3.713-3.056 5.23-6.085.183-.392.549-.444.758 0 .247.87.164 1.8-.235 2.612a7.991 7.991 0 0 1-6.014 4.83c-2.614.158-3.895-1.488-3.712-3.942-1.334 1.984-3.425 4.256-5.778 4.204z"/></g><g><path fill="#82c831" d="M200.29 32.621c-.627-.705-3.163-.313-5.228 1.254-.288.235-.575.313-.706 0a3.13 3.13 0 0 1 1.568-4.022c6.066-3.944 8.497-8.2 7.295-9.558-1.203-1.358-6.72 1.932-9.7 6.137-.235.34-.523.235-.627 0a5.009 5.009 0 0 1 1.464-4.597 11.375 11.375 0 0 1 5.908-3.551 3.716 3.716 0 0 1 4.236 1.253 4.906 4.906 0 0 1 .157 5.563 19.623 19.623 0 0 1-5.961 6.006 3.585 3.585 0 0 1 2.614.68 3.786 3.786 0 0 1 1.203 1.984 12.408 12.408 0 0 0 4.706-5.667.391.391 0 0 1 .758 0 3.992 3.992 0 0 1-.444 2.612 10.872 10.872 0 0 1-4.863 4.256 18.266 18.266 0 0 1-6.275 12.64 1.883 1.883 0 0 1-2.797-.418 4.308 4.308 0 0 1-1.23-4.83 14.686 14.686 0 0 1 8.158-7.574 2.609 2.609 0 0 0-.235-2.168zm-5.908 13.058c.81.835 4.81-5.223 5.987-9.559"/></g><g><path fill="#82c831" d="M207.09 34.679c-.157.392-.392.574-.784.209-.89-.784-1.203-2.142-.654-4.283.26-.748.534-1.492.82-2.23a.812.812 0 0 0 .409-.016 64.89 64.89 0 0 0 3.233-.719c-1.089 2.372-2.184 4.885-3.024 7.039zm4.55-16.766c.26-.47.6-.444.888 0a4.436 4.436 0 0 1 .235 4.204c-.501.995-1.078 2.175-1.682 3.45-1.24.34-2.493.635-3.756.886a1.672 1.672 0 0 0-.081.024 66.226 66.226 0 0 1 4.395-8.564zm5.359 7.6c-.626.232-1.256.454-1.889.667-.305.797-.59 1.602-.856 2.414h-.053c-.967 3.473-.026 6.111 3.347 5.98a7.508 7.508 0 0 0 5.987-4.7 2.974 2.974 0 0 0 .13-2.612c-.209-.365-.496-.392-.68 0-1.202 2.951-3.346 5.85-5.228 6.033-1.333.157-1.412-1.802-.654-3.944.759-2.141 2.353-5.092 3.112-6.972a4.357 4.357 0 0 0-.21-4.545c-.366-.339-.653-.208-.993.314a51.743 51.743 0 0 0-2.99 5.81c.388-.148.775-.3 1.16-.456zm-6.885 2.127c.325-.708.65-1.403.967-2.072a54.187 54.187 0 0 0 4.94-1.61c-.32.733-.624 1.474-.91 2.222a64.873 64.873 0 0 1-4.997 1.46zm-2.87-1.163a66.219 66.219 0 0 0-.772 1.899c-.673-.177-.316-1.54.772-1.899z"/></g><g><path fill="#82c831" d="M225.105 33.954c-2.98 0-3.242-3.134-2.484-5.929a44.844 44.844 0 0 1 5.23-10.968.627.627 0 0 1 1.071 0c.994 1.332.889 3.212-.47 5.667a42.832 42.832 0 0 0-2.903 6.32c-.758 2.09-.549 3.578.419 3.63 1.647 0 3.765-3.03 5.804-6.79 2.379-4.413 3.425-7.364 4.68-9.219.392-.6.68-.705 1.02-.313a4.618 4.618 0 0 1 .182 4.544c-.81 1.933-2.614 5.223-3.555 7.364-.942 2.142-.68 4.179.81 4.022 1.49-.156 3.713-3.055 5.229-6.085.183-.391.55-.444.758 0 .19.861.06 1.762-.366 2.534a7.991 7.991 0 0 1-6.013 4.831c-2.615.157-3.896-1.489-3.713-3.943-1.255 2.167-3.346 4.335-5.7 4.335z"/></g><g><path fill="#82c831" d="M3.399 21.597c-.419 0-.602-.209-.366-.496.235-.287 1.15-1.07 3.268-1.567l2.144-.418c1.202-2.611 2.352-5.223 3.058-6.502.262-.523.576-.575.785-.13a7.827 7.827 0 0 1-.732 4.7c-.157.496-.419 1.07-.628 1.619 1.23-.183 2.615-.313 3.791-.418a67.176 67.176 0 0 1 3.268-6.503c.288-.47.628-.496.785 0a7.827 7.827 0 0 1-.837 4.57c-.235.549-.497 1.097-.732 1.698a32.51 32.51 0 0 1 3.713-.13c.575 0 .732.235.418.574a6.593 6.593 0 0 1-4.523 1.593h-.575c-.837 1.828-1.804 3.891-2.772 6.059 1.752-.13 3.347-.13 4.497-.13.575 0 .706.234.418.574a6.907 6.907 0 0 1-4.496 1.619h-1.308c-.888 1.959-1.751 4.022-2.614 6.085-.13.34-.34.366-.575 0-.236-.366-.497-1.515 0-3.578.209-.627.47-1.436.81-2.324-1.307 0-2.614.235-3.817.392a219.764 219.764 0 0 0-2.118 5.432c-.13.391-.34.365-.575 0-.235-.366-.523-1.437 0-3.578 0-.47.288-1.019.497-1.593-1.307.183-2.614.365-4 .6-.497 0-.55 0-.366-.417C0 28.91.915 28.126 3.033 27.63l1.83-.392a60.323 60.323 0 0 1 2.614-6.32c-1.28.261-2.667.444-4.078.68zm6.693-.861c-.785 1.958-1.7 3.995-2.615 6.267 1.177-.183 2.615-.313 3.791-.47.758-1.906 1.647-4.048 2.615-6.085z"/></g></g></g></svg>