<svg width="25" height="24" viewBox="0 0 25 24" fill="none" xmlns="http://www.w3.org/2000/svg">
<mask id="mask0" mask-type="alpha" maskUnits="userSpaceOnUse" x="3" y="3" width="18" height="18">
<path fill-rule="evenodd" clip-rule="evenodd" d="M15.5451 13.9964H14.7489L14.4721 13.7225C15.4499 12.5859 16.0445 11.1123 16.0445 9.49786C16.0445 5.90901 13.1264 2.99994 9.5264 2.99994C5.9264 2.99994 3.0083 5.90901 3.0083 9.49786C3.0083 13.0867 5.9264 15.9958 9.5264 15.9958C11.1459 15.9958 12.623 15.404 13.7632 14.4303L14.0399 14.7042V15.4959L19.0519 20.4854L20.547 18.9948L15.5451 13.9964ZM9.5264 13.9955C7.03348 13.9955 5.01387 11.9821 5.01387 9.4969C5.01387 7.01269 7.03348 4.99834 9.5264 4.99834C12.0183 4.99834 14.0389 7.01269 14.0389 9.4969C14.0389 11.9821 12.0183 13.9955 9.5264 13.9955Z" fill="#6A747B"/>
</mask>
<g mask="url(#mask0)">
<rect width="24.0668" height="23.9923" fill="#7A858D"/>
</g>
</svg>
