<svg width="40" height="32" viewBox="0 0 40 32" fill="none" xmlns="http://www.w3.org/2000/svg">
<path d="M15.9549 24.012C15.2601 17.9736 19.3076 11.5653 24.3183 7.88237C21.4042 4.73824 18.0079 2.19502 14.823 1.02106C7.41501 -1.7088 0.0251082 1.041 7.59417e-05 9.20045C-0.027267 18.1181 7.33336 26.4679 15.051 30.3665C18.1288 31.9216 21.7011 32.3728 24.757 31.6925C20.2592 32.0627 16.5468 29.1553 15.9549 24.012Z" fill="#FFA046"/>
<path d="M26.7611 6.34471C25.9324 6.7793 25.1136 7.2978 24.3184 7.88215C28.1829 12.0524 31.1984 17.2807 31.7371 21.7854C32.4153 27.4566 29.1111 30.7241 24.7574 31.6926C25.9616 31.5937 27.2213 31.2622 28.4933 30.6729C34.8743 27.7158 39.3654 20.1343 39.2715 13.4047C39.1709 6.15356 32.5825 3.29089 26.7611 6.34471Z" fill="#82C832"/>
<path d="M31.7368 21.7853C31.1984 17.281 28.1826 12.0527 24.318 7.88246C19.3073 11.5654 15.2598 17.9737 15.9549 24.0121C16.5468 29.1554 20.2593 32.0628 24.757 31.6926C29.1107 30.724 32.415 27.4565 31.7368 21.7853Z" fill="#507800"/>
</svg>
