<svg width="21" height="21" viewBox="0 0 21 21" fill="none" xmlns="http://www.w3.org/2000/svg">
<path d="M13.7813 11.1563H7.21875C6.8565 11.1563 6.5625 11.4503 6.5625 11.8125C6.5625 12.1748 6.8565 12.4688 7.21875 12.4688H13.7813C14.1435 12.4688 14.4375 12.1748 14.4375 11.8125C14.4375 11.4503 14.1435 11.1563 13.7813 11.1563ZM15.0938 7.21875H5.90625C5.544 7.21875 5.25 7.51275 5.25 7.875C5.25 8.23725 5.544 8.53125 5.90625 8.53125H15.0938C15.456 8.53125 15.75 8.23725 15.75 7.875C15.75 7.51275 15.456 7.21875 15.0938 7.21875ZM10.5 0C4.70139 0 0 4.11336 0 9.1875C0 12.0875 1.5389 14.6692 3.9375 16.3531V21L8.53715 18.209C9.17374 18.314 9.82865 18.375 10.5 18.375C16.2993 18.375 21 14.2616 21 9.1875C21 4.11336 16.2993 0 10.5 0ZM10.5 17.0625C9.7335 17.0625 8.99325 16.9733 8.28186 16.8217L5.19222 18.6788L5.23356 15.6352C2.8652 14.2104 1.3125 11.8558 1.3125 9.1875C1.3125 4.83854 5.42586 1.3125 10.5 1.3125C15.5741 1.3125 19.6875 4.83854 19.6875 9.1875C19.6875 13.5365 15.5741 17.0625 10.5 17.0625Z" fill="#7A858D"/>
</svg>
