<svg width="25" height="24" viewBox="0 0 25 24" fill="none" xmlns="http://www.w3.org/2000/svg">
<mask id="mask0" mask-type="alpha" maskUnits="userSpaceOnUse" x="2" y="3" width="21" height="17">
<path d="M20.5584 7.99775L12.453 12.9962L4.34763 7.99775V5.99839L12.453 10.9968L20.5584 5.99839V7.99775ZM20.5584 3.99902H4.34763C3.22301 3.99902 2.32129 4.88874 2.32129 5.99839V17.9946C2.32129 18.5248 2.53478 19.0334 2.91479 19.4083C3.2948 19.7833 3.81021 19.9939 4.34763 19.9939H20.5584C21.0958 19.9939 21.6112 19.7833 21.9912 19.4083C22.3712 19.0334 22.5847 18.5248 22.5847 17.9946V5.99839C22.5847 4.88874 21.6729 3.99902 20.5584 3.99902Z" fill="#737373"/>
</mask>
<g mask="url(#mask0)">
<rect x="-0.246094" width="24" height="23.9923" fill="#82C831"/>
</g>
</svg>
