<svg xmlns="http://www.w3.org/2000/svg" width="27" height="15" viewBox="0 0 27 15"><g><g opacity=".6"><path fill="#7a858d" d="M12.852 14.854h1.57s.474-.053.716-.314c.223-.24.215-.69.215-.69s-.032-2.106.947-2.416c.964-.305 2.202 2.036 3.513 2.937.992.682 1.746.532 1.746.532l3.508-.05s1.836-.112.965-1.556c-.07-.118-.507-1.067-2.608-3.017-2.2-2.042-1.905-1.71.745-5.242 1.614-2.151 2.26-3.464 2.057-4.026-.192-.535-1.379-.394-1.379-.394L20.9.641s-.292-.04-.51.09c-.212.128-.348.424-.348.424s-.626 1.665-1.46 3.08c-1.758 2.986-2.463 3.144-2.75 2.958-.668-.431-.5-1.737-.5-2.663 0-2.894.438-4.1-.856-4.413-.43-.103-.745-.172-1.844-.184-1.408-.014-2.602.005-3.277.335-.45.22-.796.711-.584.74.26.034.852.158 1.165.585.406.55.391 1.788.391 1.788s.233 3.407-.543 3.83C9.25 7.502 8.52 6.91 6.952 4.2a25.267 25.267 0 0 1-1.41-2.923S5.424.991 5.215.838C4.963.653 4.61.593 4.61.593L.856.616S.293.633.086.877c-.184.219-.015.669-.015.669S3.01 8.42 6.336 11.886c3.052 3.176 6.516 2.968 6.516 2.968z"/></g></g></svg>