<svg width="27" height="16" viewBox="0 0 27 16" fill="none" xmlns="http://www.w3.org/2000/svg">
<path d="M12.8522 15.8507H14.4218C14.4218 15.8507 14.8963 15.7982 15.1376 15.5371C15.3609 15.2974 15.3527 14.8476 15.3527 14.8476C15.3527 14.8476 15.3215 12.7412 16.3 12.4309C17.2637 12.1255 18.5016 14.4667 19.8134 15.368C20.805 16.0494 21.5586 15.9 21.5586 15.9L25.0671 15.8507C25.0671 15.8507 26.9026 15.7374 26.0325 14.2943C25.9619 14.1761 25.5252 13.2271 23.4237 11.2767C21.2237 9.23432 21.5192 9.56596 24.169 6.03448C25.7829 3.88375 26.4281 2.57032 26.2262 2.00883C26.0341 1.47361 24.8471 1.6148 24.8471 1.6148L20.9003 1.63779C20.9003 1.63779 20.608 1.59839 20.3897 1.72809C20.1779 1.85615 20.0416 2.15167 20.0416 2.15167C20.0416 2.15167 19.4161 3.81643 18.5821 5.23165C16.8237 8.21805 16.1194 8.37567 15.8321 8.19014C15.1639 7.75836 15.3313 6.45314 15.3313 5.52717C15.3313 2.63271 15.7697 1.426 14.476 1.11406C14.0458 1.01063 13.7306 0.941673 12.6322 0.93018C11.2236 0.915404 10.03 0.935106 9.35524 1.2651C8.90539 1.4851 8.55898 1.976 8.77077 2.00391C9.03181 2.03838 9.62285 2.16316 9.93643 2.59002C10.342 3.14002 10.3272 4.37792 10.3272 4.37792C10.3272 4.37792 10.5603 7.78462 9.78375 8.2082C9.25017 8.4988 8.51957 7.90612 6.95167 5.19553C6.14884 3.80823 5.54138 2.27316 5.54138 2.27316C5.54138 2.27316 5.42481 1.98749 5.21631 1.8348C4.96347 1.64928 4.60885 1.59018 4.60885 1.59018L0.855735 1.61316C0.855735 1.61316 0.292604 1.62958 0.0857392 1.87421C-0.0981404 2.09256 0.0709632 2.54241 0.0709632 2.54241C0.0709632 2.54241 3.00975 9.41656 6.336 12.8824C9.38808 16.0592 12.8522 15.8507 12.8522 15.8507Z" fill="#78A0BE"/>
</svg>
